<svg width="512" height="512" viewBox="0 0 512 512" fill="none" xmlns="http://www.w3.org/2000/svg">
<path d="M36.2975 129.155L256 2.3094L475.703 129.155V382.845L256 509.691L36.2975 382.845V129.155Z" fill="black" stroke="white" stroke-width="4"/>
<g clip-path="url(#clip0_20_2)">
<path d="M242.993 191.439L247.048 189.541L240.13 174.621L239.439 173.725L238.311 173.341L223.201 171.944L222.775 176.402L236.609 177.681L242.993 191.439Z" fill="white"/>
<path d="M220.763 205.773L237.268 206.626L237.545 202.125L223.7 201.272L216.816 187.525L212.836 189.541L220.763 205.773Z" fill="white"/>
<path d="M191.298 217.046L183.839 232.041L196.363 254.555H211.516L219.518 268.622H224.317L337.516 197.828L335.932 195.855C333.527 192.794 332.643 188.795 333.537 185.009C334.399 181.265 336.92 178.108 340.379 176.445L344.242 174.621L313.042 155.979L310.723 159.85L335.228 174.493C328.62 179.858 326.875 189.232 331.132 196.623L318.415 204.376L311.999 193.295L319.735 179.932L309.105 159.008L294.409 158.08L288.301 143.629L273.575 142.583L267.307 127.429L244.536 125.029L235.724 139.053L220.837 137.08L212.569 151.457L196.874 149.484L183.732 171.07L191.468 187.067L183.307 201.486L191.309 217.067L191.298 217.046ZM188.819 171.326L199.183 154.272L214.953 156.245L223.264 141.752L237.99 143.693L246.802 129.668L264.157 131.492L270.457 146.796L285.227 147.841L291.526 162.292L306.37 163.188L314.723 179.697L306.987 193.295L314.372 206.626L313.872 207.554L291.143 221.771L292.346 219.563L284.886 205.923L291.537 193.295L291.962 192.325L291.537 191.397L284.109 176.285L269.414 175.122L262.498 160.863L246.26 159.349L245.79 163.807L259.4 165.129L265.434 177.223L258.284 189.936L262.146 192.143L269.18 179.623L281.086 180.551L286.929 192.175L280.938 203.299L269.074 202.723L268.881 207.213L280.863 207.789L287.132 219.414L283.269 226.506L276.575 230.655L269.265 230.889L262.114 218.027L258.251 220.235L265.519 233.214L261.88 239.805L254.421 244.455L247.195 244.807L240.704 232.916L246.929 219.776L243.066 217.835L237.001 230.74L224.626 230.431L216.89 216.673L213.027 218.806L221.955 234.697L236.959 235.315L244.695 249.19L246.78 249.425L223.157 264.185H222.232L214.229 250.043H199.151L188.946 232.062L196.374 217.185L188.372 201.689L196.374 187.387L188.84 171.347L188.819 171.326Z" fill="white"/>
<path d="M109.458 288.842L340.304 323.482L340.996 319.034L110.15 284.384L109.458 288.842Z" fill="white"/>
<path d="M107.106 289.607L106.397 294.041L340.326 331.594L341.035 327.161L107.106 289.607Z" fill="white"/>
<path d="M103.117 299.699L340.38 340.343L341.146 335.928L103.851 295.241L103.117 299.699Z" fill="white"/>
<path d="M100.668 300.818L99.8662 305.235L340.406 349.091L341.209 344.673L100.668 300.818Z" fill="white"/>
<path d="M357.618 191.279C357.065 193.711 355.862 195.951 354.138 197.753L304.147 247.196L307.318 250.374L357.266 201.048C359.586 198.67 361.204 195.695 361.948 192.442C363.832 184.454 360.224 176.178 353.095 172.136L267.893 122L265.647 125.871L350.7 175.89C356.181 178.887 359.012 185.168 357.618 191.269V191.279Z" fill="white"/>
<path d="M233.756 339.255L216.933 341.815L204.951 332.281L115.758 315.121L115.524 315.078L87.1127 315.74L94.1891 328.484L89.2409 330.969L83.5161 320.228L103.234 286.369L157.588 247.537L154.96 243.9L100.223 282.997L78.3765 320.112L87.3043 336.973L100.414 330.382L94.6572 320.08L115.141 319.568L203.015 336.46L215.656 346.539L233.129 343.905L317.49 379.975L337.442 380.209V375.719L318.842 375.676L233.756 339.255Z" fill="white"/>
<path d="M392.796 315.654L392.328 315.078H392.796L360.596 273.229L298.741 253.232L267.275 281.984L273.617 267.918H279.608L285.333 262.18L299.294 248.465L313.447 234.441L316.809 231.07L323.534 224.288L346.732 201.273L342.868 200.302C342.219 200.142 341.581 199.929 340.975 199.641L339.89 199.172L233.266 266.009L243.631 282.636L267.21 281.942L265.976 283.105L244.95 283.724L194.926 253.883L192.224 258.298L212.559 270.349L203.354 275.074L242.438 298.324L269.19 297.546V293.013L243.747 293.791L212.814 275.308L217.294 273.026L243.928 288.917L267.934 288.225L278.181 278.849L282.513 283.765L285.875 280.78L281.501 275.821L300.06 258.81L358.053 277.559L388.561 317.276L400.659 368.232L396.404 351.03L347.657 357.812L347.157 376.338L346.305 376.721L344.954 375.868L344.337 357.887L296.282 348.63L336.058 370.717L338.219 366.846L323.098 358.474L339.953 361.726L340.528 378.471L346.061 381.957L351.552 379.249L352.02 361.812L392.924 356.042L396.786 371.933L402.043 373.255L405.597 369.384L392.796 315.675V315.654ZM332.291 209.293L320.385 220.918L321.97 222.507L320.427 220.918L315.67 225.61L313.116 221.152L332.291 209.293ZM246.036 278.071L239.427 267.459L309.286 223.712L312.339 229.097L310.18 231.23L295.995 245.297L282.237 258.938L277.789 263.321H270.755L264.486 277.58L246.046 278.081L246.036 278.071Z" fill="white"/>
<path d="M382.827 376.454L363.46 379.708L355.607 375.91L353.638 379.975L362.8 384.4L385.029 380.635L395.511 369.832L392.298 366.685L382.827 376.454Z" fill="white"/>
<path d="M351.702 318.138L352.096 322.628L382.444 320.155L382.093 315.654L351.702 318.138Z" fill="white"/>
<path d="M383.903 322.819L351.761 325.852L352.181 330.324L384.324 327.288L383.903 322.819Z" fill="white"/>
<path d="M385.948 331.302L351.811 334.609L352.242 339.077L386.379 335.77L385.948 331.302Z" fill="white"/>
<path d="M388.038 339.85L351.868 343.365L352.301 347.835L388.47 344.318L388.038 339.85Z" fill="white"/>
</g>
<defs>
<clipPath id="clip0_20_2">
<rect width="328" height="262.4" fill="white" transform="translate(78 122)"/>
</clipPath>
</defs>
</svg>
